# xmcd
#
# Track frame offsets:
#	150
#	17397
#	32337
#	49124
#	62599
#	79727
#	95444
#	108979
#	124967
#	143873
#	160105
#	172924
#	191022
#	205251
#
# Disc length: 2987 seconds
# Revision: 3
# Processed by: cddbd v1.5.2PL0 Copyright (c) Steve Scherf et al.
# Submitted via: dBpowerAMP V12.0
#
DISCID=ae0ba90e
DTITLE=Trisha Yearwood - Every Girl
DYEAR=2019
DGENRE=Country
TTITLE0=Workin' On Whiskey
TTITLE1=Find A Way
TTITLE2=Home
TTITLE3=Every Girl In This Town
TTITLE4=Tell Me Something I Don't Know
TTITLE5=What Gave Me Away
TTITLE6=Something Kinda Like It
TTITLE7=When Lonely Calls
TTITLE8=The Matador
TTITLE9=I'll Carry You Home
TTITLE10=Drink Up
TTITLE11=Bible And A .44
TTITLE12=Can't Take Back Goodbye
TTITLE13=Love You Anyway
EXTD=
EXTT0=
EXTT1=
EXTT2=
EXTT3=
EXTT4=
EXTT5=
EXTT6=
EXTT7=
EXTT8=
EXTT9=
EXTT10=
EXTT11=
EXTT12=
EXTT13=
PLAYORDER=
